<svg xmlns="http://www.w3.org/2000/svg" viewBox="0 0 120 40" role="img" aria-labelledby="title">
  <title id="title">Tripadvisor Ollie logo</title>
  <g fill="none" stroke="#141414" stroke-width="3.5" stroke-linecap="round" stroke-linejoin="round">
    <path d="M10 10c6.8-4.4 13.5-4.4 20.2 0c-6.8 4.5-13.5 4.5-20.2 0z" fill="#34E0A1"/>
    <path d="M110 10c-6.8-4.4-13.5-4.4-20.2 0c6.8 4.5 13.5 4.5 20.2 0z" fill="#34E0A1"/>
    <circle cx="20" cy="20" r="16.5"/>
    <circle cx="100" cy="20" r="16.5"/>
    <circle cx="20" cy="20" r="9" fill="#ffffff"/>
    <circle cx="100" cy="20" r="9" fill="#ffffff"/>
    <circle cx="20" cy="20" r="4" fill="#141414" stroke="none"/>
    <circle cx="100" cy="20" r="4" fill="#141414" stroke="none"/>
    <path d="M34 24c9 11 43 11 52 0"/>
  </g>
  <path d="M48 29c2-4 4-7 12-7s10 3 12 7" fill="#141414"/>
</svg>
